<svg xmlns="http://www.w3.org/2000/svg" xmlns:xlink="http://www.w3.org/1999/xlink" id="Layer_1" x="0" y="0" version="1.1" viewBox="0 0 42 42" xml:space="preserve" style="enable-background:new 0 0 42 42"><style type="text/css">.st0{fill:url(#SVGID_1_)}.st1{fill:url(#SVGID_2_)}.st2{fill:url(#SVGID_3_)}.st3{fill:url(#SVGID_4_)}.st4{fill:url(#SVGID_5_)}.st5{fill:url(#SVGID_6_)}.st6{fill:url(#SVGID_7_)}.st7{fill:url(#SVGID_8_)}</style><g><g><linearGradient id="SVGID_1_" x1="55.786" x2="-9.922" y1="10.234" y2="39.764" gradientUnits="userSpaceOnUse"><stop offset="0" style="stop-color:#009643"/><stop offset=".182" style="stop-color:#009346"/><stop offset=".337" style="stop-color:#018951"/><stop offset=".483" style="stop-color:#037963"/><stop offset=".623" style="stop-color:#06637c"/><stop offset=".759" style="stop-color:#09469c"/><stop offset=".89" style="stop-color:#0d23c2"/><stop offset="1" style="stop-color:#1100e9"/></linearGradient><path d="M31.8,25.3c-3.2,0-6,1.8-7.3,4.5l-7.8-4c1-1.4,1.6-3,1.6-4.9c0-1.8-0.6-3.5-1.6-4.9l7.8-4 c1.3,2.6,3.9,4.4,7,4.5c4.5,0.1,8.3-3.4,8.4-7.9c0.1-4.5-3.4-8.3-7.9-8.4s-8.3,3.4-8.4,7.9c0,0.4,0,0.8,0.1,1.2l-9.2,4.7 c-1.3-0.8-2.8-1.3-4.4-1.3C5.6,12.8,2,16.5,2,21s3.6,8.2,8.2,8.2c1.6,0,3.1-0.5,4.4-1.3l9.2,4.7c0,0.3-0.1,0.6-0.1,1 c0,4.5,3.6,8.2,8.2,8.2c4.5,0,8.2-3.6,8.2-8.2C40,29,36.3,25.3,31.8,25.3z M32,2.7c3.2,0.1,5.7,2.8,5.6,5.9 c-0.1,3.2-2.8,5.7-5.9,5.6c-2.2-0.1-4.1-1.4-5-3.2c-0.4-0.8-0.6-1.8-0.6-2.7v0C26.2,5.1,28.8,2.7,32,2.7z M11.9,26.5 c-0.5,0.2-1.1,0.3-1.7,0.3c-3.2,0-5.8-2.6-5.8-5.8c0-3.2,2.6-5.8,5.8-5.8c0.6,0,1.2,0.1,1.7,0.3h0c1,0.3,1.9,0.9,2.6,1.7 c0.9,1,1.4,2.3,1.4,3.8c0,1.4-0.5,2.8-1.4,3.8C13.8,25.6,12.9,26.2,11.9,26.5L11.9,26.5z M31.8,39.3c-3.1,0-5.6-2.5-5.8-5.5 c0-0.1,0-0.2,0-0.2c0-0.9,0.2-1.8,0.6-2.5c0.9-1.9,2.9-3.2,5.2-3.2c3.2,0,5.8,2.6,5.8,5.8C37.6,36.7,35,39.3,31.8,39.3z" class="st0"/></g><g><linearGradient id="SVGID_2_" x1="51.03" x2="-14.215" y1="-.126" y2="29.196" gradientUnits="userSpaceOnUse"><stop offset="0" style="stop-color:#009643"/><stop offset=".182" style="stop-color:#009346"/><stop offset=".337" style="stop-color:#018951"/><stop offset=".483" style="stop-color:#037963"/><stop offset=".623" style="stop-color:#06637c"/><stop offset=".759" style="stop-color:#09469c"/><stop offset=".89" style="stop-color:#0d23c2"/><stop offset="1" style="stop-color:#1100e9"/></linearGradient><circle cx="31.8" cy="8.5" r=".9" class="st1"/><linearGradient id="SVGID_3_" x1="51.874" x2="-13.371" y1=".73" y2="30.052" gradientUnits="userSpaceOnUse"><stop offset="0" style="stop-color:#009643"/><stop offset=".182" style="stop-color:#009346"/><stop offset=".337" style="stop-color:#018951"/><stop offset=".483" style="stop-color:#037963"/><stop offset=".623" style="stop-color:#06637c"/><stop offset=".759" style="stop-color:#09469c"/><stop offset=".89" style="stop-color:#0d23c2"/><stop offset="1" style="stop-color:#1100e9"/></linearGradient><circle cx="34.6" cy="8.5" r=".9" class="st2"/><linearGradient id="SVGID_4_" x1="50.187" x2="-15.058" y1="-.982" y2="28.34" gradientUnits="userSpaceOnUse"><stop offset="0" style="stop-color:#009643"/><stop offset=".182" style="stop-color:#009346"/><stop offset=".337" style="stop-color:#018951"/><stop offset=".483" style="stop-color:#037963"/><stop offset=".623" style="stop-color:#06637c"/><stop offset=".759" style="stop-color:#09469c"/><stop offset=".89" style="stop-color:#0d23c2"/><stop offset="1" style="stop-color:#1100e9"/></linearGradient><circle cx="29.1" cy="8.5" r=".9" class="st3"/></g><g><linearGradient id="SVGID_5_" x1="65.858" x2=".613" y1="18.205" y2="47.528" gradientUnits="userSpaceOnUse"><stop offset="0" style="stop-color:#009643"/><stop offset=".182" style="stop-color:#009346"/><stop offset=".337" style="stop-color:#018951"/><stop offset=".483" style="stop-color:#037963"/><stop offset=".623" style="stop-color:#06637c"/><stop offset=".759" style="stop-color:#09469c"/><stop offset=".89" style="stop-color:#0d23c2"/><stop offset="1" style="stop-color:#1100e9"/></linearGradient><circle cx="31.8" cy="33.5" r=".9" class="st4"/><linearGradient id="SVGID_6_" x1="66.701" x2="1.456" y1="19.062" y2="48.384" gradientUnits="userSpaceOnUse"><stop offset="0" style="stop-color:#009643"/><stop offset=".182" style="stop-color:#009346"/><stop offset=".337" style="stop-color:#018951"/><stop offset=".483" style="stop-color:#037963"/><stop offset=".623" style="stop-color:#06637c"/><stop offset=".759" style="stop-color:#09469c"/><stop offset=".89" style="stop-color:#0d23c2"/><stop offset="1" style="stop-color:#1100e9"/></linearGradient><circle cx="34.6" cy="33.5" r=".9" class="st5"/><linearGradient id="SVGID_7_" x1="65.014" x2="-.231" y1="17.349" y2="46.672" gradientUnits="userSpaceOnUse"><stop offset="0" style="stop-color:#009643"/><stop offset=".182" style="stop-color:#009346"/><stop offset=".337" style="stop-color:#018951"/><stop offset=".483" style="stop-color:#037963"/><stop offset=".623" style="stop-color:#06637c"/><stop offset=".759" style="stop-color:#09469c"/><stop offset=".89" style="stop-color:#0d23c2"/><stop offset="1" style="stop-color:#1100e9"/></linearGradient><circle cx="29.1" cy="33.5" r=".9" class="st6"/></g><linearGradient id="SVGID_8_" x1="44.788" x2="-9.314" y1="5.683" y2="29.997" gradientUnits="userSpaceOnUse"><stop offset="0" style="stop-color:#009643"/><stop offset=".182" style="stop-color:#009346"/><stop offset=".337" style="stop-color:#018951"/><stop offset=".483" style="stop-color:#037963"/><stop offset=".623" style="stop-color:#06637c"/><stop offset=".759" style="stop-color:#09469c"/><stop offset=".89" style="stop-color:#0d23c2"/><stop offset="1" style="stop-color:#1100e9"/></linearGradient><path d="M11.5,19.3c0-0.8-0.6-1.4-1.4-1.4c-0.8,0-1.4,0.6-1.4,1.4c0,0.5,0.2,0.9,0.6,1.1l-0.6,3.6h2.7l-0.6-3.6 C11.3,20.2,11.5,19.8,11.5,19.3z" class="st7"/></g></svg>